<svg width="134" height="120" viewBox="0 0 134 120" fill="none" xmlns="http://www.w3.org/2000/svg">
<g clip-path="url(#clip0_1649_2770)">
<path d="M132.506 45.8904C132.458 45.8905 132.411 45.8758 132.372 45.8484L67.5122 0.678263C67.3148 0.541442 67.0803 0.468322 66.8401 0.468732C66.5999 0.469141 66.3657 0.54306 66.1687 0.680553L1.77625 45.8479C1.72532 45.8837 1.66228 45.8977 1.60101 45.8869C1.53973 45.8762 1.48524 45.8415 1.44951 45.7906C1.41379 45.7397 1.39976 45.6766 1.41051 45.6154C1.42127 45.5541 1.45592 45.4996 1.50686 45.4639L65.8994 0.296474C66.1751 0.104012 66.5031 0.000554795 66.8394 2.22506e-06C67.1756 -0.000550345 67.5039 0.101828 67.7803 0.293383L132.64 45.4634C132.681 45.492 132.712 45.5328 132.728 45.5801C132.744 45.6274 132.745 45.6785 132.73 45.7262C132.715 45.7738 132.685 45.8154 132.645 45.845C132.604 45.8745 132.556 45.8904 132.506 45.8904Z" fill="black"/>
<path d="M5.45605 47.4916L66.9042 1.95099L128.818 50.732L70.0702 85.5588L38.175 78.2885L5.45605 47.4916Z" fill="white"/>
<path d="M40.867 107.07H10.5102C10.3238 107.07 10.1391 107.034 9.96686 106.962C9.79458 106.891 9.63802 106.787 9.50613 106.655C9.37424 106.523 9.26961 106.367 9.19822 106.195C9.12684 106.023 9.09009 105.838 9.09009 105.652C9.09009 105.465 9.12684 105.281 9.19822 105.108C9.26961 104.936 9.37424 104.78 9.50613 104.648C9.63802 104.516 9.79458 104.412 9.96686 104.341C10.1391 104.27 10.3238 104.233 10.5102 104.233H40.867C41.0534 104.233 41.238 104.27 41.4103 104.341C41.5826 104.412 41.7392 104.516 41.8711 104.648C42.0029 104.78 42.1076 104.936 42.179 105.108C42.2504 105.281 42.2871 105.465 42.2871 105.652C42.2871 105.838 42.2504 106.023 42.179 106.195C42.1076 106.367 42.0029 106.523 41.8711 106.655C41.7392 106.787 41.5826 106.891 41.4103 106.962C41.238 107.034 41.0534 107.07 40.867 107.07Z" fill="#FAFE11"/>
<path d="M21.4015 100.972H10.5102C10.3238 100.972 10.1391 100.936 9.96686 100.865C9.79458 100.794 9.63802 100.689 9.50613 100.557C9.37424 100.426 9.26961 100.269 9.19822 100.097C9.12684 99.9249 9.09009 99.7403 9.09009 99.5539C9.09009 99.3675 9.12684 99.183 9.19822 99.0108C9.26961 98.8386 9.37424 98.6822 9.50613 98.5504C9.63802 98.4187 9.79458 98.3143 9.96686 98.2431C10.1391 98.1719 10.3238 98.1354 10.5102 98.1357H21.4015C21.5879 98.1354 21.7726 98.1719 21.9448 98.2431C22.1171 98.3143 22.2737 98.4187 22.4056 98.5504C22.5375 98.6822 22.6421 98.8386 22.7135 99.0108C22.7849 99.183 22.8216 99.3675 22.8216 99.5539C22.8216 99.7403 22.7849 99.9249 22.7135 100.097C22.6421 100.269 22.5375 100.426 22.4056 100.557C22.2737 100.689 22.1171 100.794 21.9448 100.865C21.7726 100.936 21.5879 100.972 21.4015 100.972Z" fill="#FAFE11"/>
<path d="M67.768 72.8571C67.5373 72.8574 67.3087 72.8126 67.0952 72.7253L29.1982 57.0008V7.78028C29.1987 7.34504 29.3719 6.92777 29.6796 6.62C29.9874 6.31224 30.4047 6.13912 30.8399 6.13861H103.542C103.978 6.13912 104.395 6.31224 104.703 6.62C105.01 6.92777 105.183 7.34504 105.184 7.78028V57.0351L105.113 57.0656L68.4613 72.7176C68.2418 72.8099 68.0061 72.8573 67.768 72.8571Z" fill="white"/>
<path d="M67.7681 72.9742C67.5221 72.9745 67.2784 72.9268 67.0506 72.8338L29.0811 57.079V7.78023C29.0816 7.3139 29.2671 6.86681 29.5968 6.53706C29.9266 6.20731 30.3736 6.02183 30.84 6.0213H103.542C104.009 6.02183 104.456 6.20731 104.786 6.53706C105.115 6.86681 105.301 7.3139 105.301 7.78023V57.1125L68.5074 72.8254C68.2734 72.9238 68.022 72.9744 67.7681 72.9742ZM29.5501 56.7657L67.2294 72.4002C67.5809 72.5428 67.9745 72.5404 68.3242 72.3936L104.832 56.8028V7.78023C104.832 7.43826 104.696 7.11041 104.454 6.86859C104.212 6.62678 103.884 6.49075 103.542 6.49035H30.84C30.498 6.49075 30.1702 6.62678 29.9284 6.86859C29.6865 7.11041 29.5505 7.43826 29.5501 7.78023L29.5501 56.7657Z" fill="black"/>
<path d="M132.037 45.4214H131.99L105.067 56.9178L68.2301 72.6473C68.0862 72.7078 67.9317 72.7394 67.7756 72.7402C67.6194 72.741 67.4646 72.711 67.3201 72.652L29.3155 56.8849L1.73076 45.4402L1.68862 45.4214H1.64167C1.20642 45.4219 0.789133 45.595 0.481365 45.9028C0.173597 46.2105 0.000482944 46.6278 0 47.0631V118.358C0.000483563 118.794 0.173598 119.211 0.481365 119.519C0.789133 119.826 1.20642 120 1.64167 120H132.037C132.472 120 132.89 119.826 133.197 119.519C133.505 119.211 133.678 118.794 133.679 118.358V47.0631C133.678 46.6278 133.505 46.2105 133.197 45.9028C132.89 45.595 132.472 45.4219 132.037 45.4214ZM133.21 118.358C133.209 118.669 133.086 118.967 132.866 119.187C132.646 119.407 132.348 119.531 132.037 119.531H1.64167C1.33071 119.531 1.03252 119.407 0.812639 119.187C0.592757 118.967 0.469172 118.669 0.469048 118.358V47.0631C0.469473 46.7598 0.587098 46.4685 0.79733 46.2499C1.00756 46.0314 1.29413 45.9026 1.59712 45.8904L29.3155 57.3915L67.1396 73.0858C67.549 73.2524 68.0078 73.2499 68.4154 73.0788L105.067 57.4267L132.084 45.8904C132.386 45.9035 132.672 46.0327 132.882 46.2511C133.092 46.4695 133.209 46.7603 133.21 47.0631V118.358Z" fill="black"/>
<path d="M67.3892 58.9C65.9901 58.9026 64.6282 58.4502 63.5088 57.611L63.4394 57.5589L48.826 46.3704C48.1492 45.8518 47.5812 45.205 47.1543 44.467C46.7275 43.7289 46.4503 42.914 46.3384 42.0688C46.2265 41.2235 46.2822 40.3646 46.5023 39.5409C46.7224 38.7172 47.1025 37.9449 47.6211 37.2681C48.1396 36.5913 48.7864 36.0233 49.5245 35.5965C50.2625 35.1697 51.0774 34.8924 51.9227 34.7805C52.7679 34.6686 53.6269 34.7243 54.4506 34.9444C55.2743 35.1645 56.0466 35.5447 56.7233 36.0632L66.1888 43.3212L88.5572 14.1495C89.076 13.4729 89.723 12.9051 90.4612 12.4786C91.1994 12.052 92.0144 11.775 92.8597 11.6634C93.7049 11.5519 94.5639 11.6079 95.3875 11.8283C96.2111 12.0487 96.9833 12.4291 97.6598 12.9479L97.5208 13.1368L97.6635 12.9507C99.0282 13.9996 99.9212 15.5471 100.146 17.2536C100.372 18.9601 99.9109 20.6862 98.865 22.0534L72.5544 56.3662C71.9459 57.1569 71.1634 57.7968 70.2676 58.2362C69.3719 58.6756 68.3869 58.9027 67.3892 58.9Z" fill="#FAFE11"/>
</g>
<defs>
<clipPath id="clip0_1649_2770">
<rect width="133.679" height="120" fill="white"/>
</clipPath>
</defs>
</svg>
